# xmcd
#
# Track frame offsets: 
#        150
#        19986
#        38220
#        58533
#        70812
#        85930
#        109342
#        122318
#        135235
#        151984
#        170811
#        183928
#        204038
#        214579
#        238867
#        263247
#        285668
#        303963
#        323815
#
# Disc length: 4341 seconds
#
# Revision: 0
# Processed by: cddbd v1.5.2PL0 Copyright (c) Steve Scherf et al.
# Submitted via: ExactAudioCopyFreeDBPlugin 1.0
#
DISCID=0410f313
DTITLE=Virgis Stakenas and Crazy Crow - 615
DYEAR=1998
DGENRE=Country
TTITLE0=Seni draugai
TTITLE1=Ugninis lietus
TTITLE2=Nezadink, mama, dar
TTITLE3=Broliai
TTITLE4=Seima
TTITLE5=Jaunute
TTITLE6=Radijo koncertas
TTITLE7=Sugalvojau
TTITLE8=Pazymetasis
TTITLE9=Nepripratau
TTITLE10=Avis
TTITLE11=Rytiniame autobuse
TTITLE12=Mano senelis Anupras
TTITLE13=I kranta!
TTITLE14=Melage
TTITLE15=Labas!
TTITLE16=Durniu laivas
TTITLE17=Old Friends
TTITLE18=Dapper
EXTD=
EXTT0=
EXTT1=
EXTT2=
EXTT3=
EXTT4=
EXTT5=
EXTT6=
EXTT7=
EXTT8=
EXTT9=
EXTT10=
EXTT11=
EXTT12=
EXTT13=
EXTT14=
EXTT15=
EXTT16=
EXTT17=
EXTT18=
PLAYORDER=
